<svg xmlns="http://www.w3.org/2000/svg" xmlns:xlink="http://www.w3.org/1999/xlink" version="1.1" id="Ebene_1" x="0px" y="0px" viewBox="0 0 18 18" style="enable-background:new 0 0 18 18;" xml:space="preserve"><g><defs><path id="SVGID_1_" d="M2.2,0h13.5C17,0,18,1,18,2.3v13.5c0,1.2-1,2.2-2.2,2.2H2.2C1,18,0,17,0,15.8V2.3C0,1,1,0,2.2,0z"/></defs><clipPath id="SVGID_2_"><use xlink:href="#SVGID_1_" style="overflow:visible;"/></clipPath><g class="st0"><path class="st1" d="M15.8,8.9c0-4.1-2.6-7.6-6.3-9H0.2v17.9h9.4C13.2,16.4,15.8,13,15.8,8.9z M6.8,13.4c-2.5,0-4.5-2-4.5-4.5 s2-4.5,4.5-4.5c2.5,0,4.5,2,4.5,4.5S9.3,13.4,6.8,13.4z"/><path class="st1" d="M6.8,5.5C4.9,5.5,3.4,7,3.4,8.9c0,1.9,1.5,3.4,3.4,3.4c1.9,0,3.4-1.5,3.4-3.4S8.6,5.5,6.8,5.5z"/><path class="st1" d="M12-0.1c2.9,1.9,4.9,5.2,4.9,9c0,3.7-1.9,7-4.8,8.9h6V-0.1H12z"/><path class="st1" d="M6.2-1.8v1.1c1.1,0,2.2,0.2,3.3,0.6H12C10.3-1.2,8.4-1.8,6.2-1.8z"/><path class="st1" d="M6.2,18.4v1.1c2.2,0,4.2-0.7,5.9-1.8H9.6C8.6,18.2,7.4,18.4,6.2,18.4z"/></g></g></svg>